####
#
# OBJ File Generated by Meshlab
#
####
# Object circle.obj
#
# Vertices: 33
# Faces: 32
#
####
v 450.0000000 965.6855469 0.0000000
v 450.0000000 1065.6855469 0.0000080
v 430.4910278 1063.7640381 0.0000070
v 411.7316895 1058.0734863 0.0000070
v 394.4429932 1048.8325195 0.0000060
v 379.2893066 1036.3962402 0.0000050
v 366.8529968 1021.2424316 0.0000040
v 357.6119995 1003.9538574 0.0000030
v 351.9215088 985.1945801 0.0000010
v 350.0000000 965.6855469 0.0000000
v 351.9215088 946.1765137 -0.0000010
v 357.6119995 927.4172363 -0.0000030
v 366.8529968 910.1285400 -0.0000040
v 379.2893066 894.9748535 -0.0000050
v 394.4429932 882.5385742 -0.0000060
v 411.7316895 873.2974854 -0.0000070
v 430.4909973 867.6069336 -0.0000070
v 450.0000000 865.6855469 -0.0000080
v 469.5089722 867.6069336 -0.0000070
v 488.2683105 873.2974854 -0.0000070
v 505.5570068 882.5384521 -0.0000060
v 520.7106934 894.9748535 -0.0000050
v 533.1469727 910.1285400 -0.0000040
v 542.3880005 927.4172363 -0.0000030
v 548.0784912 946.1765137 -0.0000010
v 550.0000000 965.6855469 0.0000000
v 548.0784912 985.1945801 0.0000010
v 542.3880005 1003.9538574 0.0000030
v 533.1469727 1021.2424316 0.0000040
v 520.7106934 1036.3962402 0.0000050
v 505.5570068 1048.8325195 0.0000060
v 488.2683105 1058.0734863 0.0000070
v 469.5090027 1063.7640381 0.0000070
# 33 vertices, 0 vertices normals

f 1 2 3
f 1 3 4
f 1 4 5
f 1 5 6
f 1 6 7
f 1 7 8
f 1 8 9
f 1 9 10
f 1 10 11
f 1 11 12
f 1 12 13
f 1 13 14
f 1 14 15
f 1 15 16
f 1 16 17
f 1 17 18
f 1 18 19
f 1 19 20
f 1 20 21
f 1 21 22
f 1 22 23
f 1 23 24
f 1 24 25
f 1 25 26
f 1 26 27
f 1 27 28
f 1 28 29
f 1 29 30
f 1 30 31
f 1 31 32
f 1 32 33
f 1 33 2
# 32 faces, 0 coords texture

# End of File
