####
#
# OBJ File Generated by Meshlab
#
####
# Object square.obj
#
# Vertices: 133
# Faces: 224
#
####
v -1.0000000 -1.0000000 -0.0000000
v -1.0000000 0.0000000 0.0000000
v 0.0000000 -1.0000000 -0.0000000
v 1.0000000 0.0000000 0.0000000
v 0.0000000 1.0000000 0.0000000
v 0.0000000 0.0000000 0.0000000
v -1.0000000 -0.5000000 -0.0000000
v 0.5000000 -1.0000000 -0.0000000
v 1.0000000 0.5000000 0.0000000
v -0.5000000 1.0000000 0.0000000
v -1.0000000 0.5000000 0.0000000
v -0.5000000 -1.0000000 -0.0000000
v 1.0000000 -0.5000000 -0.0000000
v 0.5000000 1.0000000 0.0000000
v 0.0000000 0.5000000 0.0000000
v 0.0000000 -0.5000000 -0.0000000
v -0.5000000 0.0000000 0.0000000
v 0.5000000 0.0000000 0.0000000
v 0.5000000 -0.5000000 -0.0000000
v -0.5000000 -0.5000000 -0.0000000
v -0.5000000 0.5000000 0.0000000
v 0.5000000 0.5000000 0.0000000
v -1.0000000 -0.7500000 -0.0000000
v -0.7500000 1.0000000 0.0000000
v -1.0000000 0.2500000 0.0000000
v -0.2500000 -1.0000000 -0.0000000
v 1.0000000 -0.2500000 -0.0000000
v 0.2500000 1.0000000 0.0000000
v 0.0000000 0.7500000 0.0000000
v 0.0000000 -0.2500000 -0.0000000
v -0.7500000 0.0000000 0.0000000
v 0.2500000 0.0000000 0.0000000
v -1.0000000 -0.2500000 -0.0000000
v 0.2500000 -1.0000000 -0.0000000
v 1.0000000 0.2500000 0.0000000
v -0.2500000 1.0000000 0.0000000
v 0.0000000 0.2500000 0.0000000
v 0.0000000 -0.7500000 -0.0000000
v -0.2500000 0.0000000 0.0000000
v 0.7500000 0.0000000 0.0000000
v 0.5000000 -0.2500000 -0.0000000
v 0.5000000 -0.7500000 -0.0000000
v 0.2500000 -0.5000000 -0.0000000
v 0.7500000 -0.5000000 -0.0000000
v -0.5000000 -0.2500000 -0.0000000
v -0.5000000 -0.7500000 -0.0000000
v -0.7500000 -0.5000000 -0.0000000
v -0.2500000 -0.5000000 -0.0000000
v -0.5000000 0.7500000 0.0000000
v -0.5000000 0.2500000 0.0000000
v -0.7500000 0.5000000 0.0000000
v -0.2500000 0.5000000 0.0000000
v 0.5000000 0.7500000 0.0000000
v 0.5000000 0.2500000 0.0000000
v 0.2500000 0.5000000 0.0000000
v 0.7500000 0.5000000 0.0000000
v 0.7500000 0.2500000 0.0000000
v 0.2500000 0.2500000 0.0000000
v 0.2500000 0.7500000 0.0000000
v -0.2500000 0.2500000 0.0000000
v -0.7500000 0.2500000 0.0000000
v -0.7500000 0.7500000 0.0000000
v -0.2500000 -0.7500000 -0.0000000
v -0.7500000 -0.7500000 -0.0000000
v -0.7500000 -0.2500000 -0.0000000
v 0.7500000 -0.7500000 -0.0000000
v 0.2500000 -0.7500000 -0.0000000
v 0.2500000 -0.2500000 -0.0000000
v 0.7500000 -0.2500000 -0.0000000
v -0.2500000 -0.2500000 -0.0000000
v -0.2500000 0.7500000 0.0000000
v 0.7500000 0.7500000 0.0000000
v -0.1250000 0.8750000 0.0000000
v -0.1250000 -0.1250000 -0.0000000
v 0.8750000 -0.1250000 -0.0000000
v 0.3750000 -0.1250000 -0.0000000
v 0.3750000 -0.6250000 -0.0000000
v 0.8750000 -0.6250000 -0.0000000
v -0.6250000 -0.1250000 -0.0000000
v -0.6250000 -0.6250000 -0.0000000
v -0.1250000 -0.6250000 -0.0000000
v -0.6250000 0.8750000 0.0000000
v -0.6250000 0.3750000 0.0000000
v -0.1250000 0.3750000 0.0000000
v 0.3750000 0.8750000 0.0000000
v 0.3750000 0.3750000 0.0000000
v 0.8750000 0.3750000 0.0000000
v 0.6250000 0.3750000 0.0000000
v 0.6250000 0.1250000 0.0000000
v 0.8750000 0.1250000 0.0000000
v 0.1250000 0.3750000 0.0000000
v 0.1250000 0.1250000 0.0000000
v 0.3750000 0.1250000 0.0000000
v 0.1250000 0.8750000 0.0000000
v 0.1250000 0.6250000 0.0000000
v 0.3750000 0.6250000 0.0000000
v -0.3750000 0.3750000 0.0000000
v -0.3750000 0.1250000 0.0000000
v -0.1250000 0.1250000 0.0000000
v -0.8750000 0.3750000 0.0000000
v -0.8750000 0.1250000 0.0000000
v -0.6250000 0.1250000 0.0000000
v -0.8750000 0.6250000 0.0000000
v -0.6250000 0.6250000 0.0000000
v -0.3750000 -0.6250000 -0.0000000
v -0.3750000 -0.8750000 -0.0000000
v -0.1250000 -0.8750000 -0.0000000
v -0.8750000 -0.6250000 -0.0000000
v -0.8750000 -0.8750000 -0.0000000
v -0.6250000 -0.8750000 -0.0000000
v -0.8750000 -0.1250000 -0.0000000
v -0.8750000 -0.3750000 -0.0000000
v -0.6250000 -0.3750000 -0.0000000
v 0.6250000 -0.6250000 -0.0000000
v 0.6250000 -0.8750000 -0.0000000
v 0.1250000 -0.6250000 -0.0000000
v 0.1250000 -0.8750000 -0.0000000
v 0.3750000 -0.8750000 -0.0000000
v 0.1250000 -0.1250000 -0.0000000
v 0.1250000 -0.3750000 -0.0000000
v 0.3750000 -0.3750000 -0.0000000
v 0.6250000 -0.1250000 -0.0000000
v 0.6250000 -0.3750000 -0.0000000
v 0.8750000 -0.3750000 -0.0000000
v -0.3750000 -0.1250000 -0.0000000
v -0.3750000 -0.3750000 -0.0000000
v -0.1250000 -0.3750000 -0.0000000
v -0.3750000 0.8750000 0.0000000
v -0.3750000 0.6250000 0.0000000
v -0.1250000 0.6250000 0.0000000
v 0.6250000 0.8750000 0.0000000
v 0.6250000 0.6250000 0.0000000
v 0.8750000 0.6250000 0.0000000
# 133 vertices, 0 vertices normals

f 71 29 73
f 70 30 74
f 69 27 75
f 68 41 76
f 67 42 77
f 65 45 79
f 64 46 80
f 63 38 81
f 62 49 82
f 61 50 83
f 60 37 84
f 59 53 85
f 58 54 86
f 57 35 87
f 54 57 88
f 18 40 89
f 40 4 90
f 37 58 91
f 6 32 92
f 32 18 93
f 29 59 94
f 15 55 95
f 55 22 96
f 50 60 97
f 17 39 98
f 39 6 99
f 25 61 100
f 2 31 101
f 31 17 102
f 11 51 103
f 51 21 104
f 46 63 105
f 12 26 106
f 26 3 107
f 33 65 111
f 7 47 112
f 47 20 113
f 42 66 114
f 38 67 116
f 3 34 117
f 34 8 118
f 30 68 119
f 16 43 120
f 43 19 121
f 41 69 122
f 19 44 123
f 44 13 124
f 45 70 125
f 20 48 126
f 48 16 127
f 49 71 128
f 21 52 129
f 52 15 130
f 53 72 131
f 22 56 132
f 56 9 133
f 29 5 73
f 5 36 73
f 36 71 73
f 30 6 74
f 6 39 74
f 39 70 74
f 27 4 75
f 4 40 75
f 40 69 75
f 41 18 76
f 18 32 76
f 32 68 76
f 42 19 77
f 19 43 77
f 43 67 77
f 13 44 78
f 44 66 78
f 45 17 79
f 17 31 79
f 31 65 79
f 46 20 80
f 20 47 80
f 47 64 80
f 38 16 81
f 16 48 81
f 48 63 81
f 49 10 82
f 50 21 83
f 21 51 83
f 51 61 83
f 37 15 84
f 15 52 84
f 52 60 84
f 53 14 85
f 14 28 85
f 28 59 85
f 54 22 86
f 22 55 86
f 55 58 86
f 35 9 87
f 9 56 87
f 56 57 87
f 57 56 88
f 56 22 88
f 22 54 88
f 40 57 89
f 57 54 89
f 54 18 89
f 4 35 90
f 35 57 90
f 57 40 90
f 58 55 91
f 55 15 91
f 15 37 91
f 32 58 92
f 58 37 92
f 37 6 92
f 18 54 93
f 54 58 93
f 58 32 93
f 59 28 94
f 28 5 94
f 5 29 94
f 55 59 95
f 59 29 95
f 29 15 95
f 22 53 96
f 53 59 96
f 59 55 96
f 60 52 97
f 52 21 97
f 21 50 97
f 39 60 98
f 60 50 98
f 50 17 98
f 6 37 99
f 37 60 99
f 60 39 99
f 61 51 100
f 51 11 100
f 11 25 100
f 31 61 101
f 61 25 101
f 25 2 101
f 17 50 102
f 50 61 102
f 61 31 102
f 51 62 103
f 21 49 104
f 49 62 104
f 62 51 104
f 63 48 105
f 48 20 105
f 20 46 105
f 26 63 106
f 63 46 106
f 46 12 106
f 3 38 107
f 38 63 107
f 63 26 107
f 64 47 108
f 47 7 108
f 12 46 110
f 46 64 110
f 65 31 111
f 31 2 111
f 2 33 111
f 47 65 112
f 65 33 112
f 33 7 112
f 20 45 113
f 45 65 113
f 65 47 113
f 66 44 114
f 44 19 114
f 19 42 114
f 66 42 115
f 42 8 115
f 67 43 116
f 43 16 116
f 16 38 116
f 34 67 117
f 67 38 117
f 38 3 117
f 8 42 118
f 42 67 118
f 67 34 118
f 68 32 119
f 32 6 119
f 6 30 119
f 43 68 120
f 68 30 120
f 30 16 120
f 19 41 121
f 41 68 121
f 68 43 121
f 69 40 122
f 40 18 122
f 18 41 122
f 44 69 123
f 69 41 123
f 41 19 123
f 13 27 124
f 27 69 124
f 69 44 124
f 70 39 125
f 39 17 125
f 17 45 125
f 48 70 126
f 70 45 126
f 45 20 126
f 16 30 127
f 30 70 127
f 70 48 127
f 71 36 128
f 36 10 128
f 10 49 128
f 52 71 129
f 71 49 129
f 49 21 129
f 15 29 130
f 29 71 130
f 71 52 130
f 14 53 131
f 56 72 132
f 72 53 132
f 53 22 132
f 72 56 133
# 224 faces, 0 coords texture

# End of File
